# xmcd
#
# Track frame offsets:
#	150
#	38417
#	89909
#	156012
#	188548
#	210691
#	232578
#	250142
#
# Disc length: 3460 seconds
# Revision: 0
# Processed by: cddbd v1.5.2PL0 Copyright (c) Steve Scherf et al.
# Submitted via: dBpowerAMP V12.0
#
DISCID=580d8208
DTITLE=Carlos Santana - Carlos Santana
DYEAR=1900
DGENRE=Blues
TTITLE0=Jam In E
TTITLE1=Latin Tropical
TTITLE2=Santana Jam
TTITLE3=Everyday I Have The Blues
TTITLE4=Soul sacrifice
TTITLE5=Travelin' Blues
TTITLE6=As The Years Go Bay
TTITLE7=Let's Get Ourselves Together
EXTD=
EXTT0=
EXTT1=
EXTT2=
EXTT3=
EXTT4=
EXTT5=
EXTT6=
EXTT7=
PLAYORDER=
